<svg width="20" height="20" viewBox="0 0 20 20" fill="none" xmlns="http://www.w3.org/2000/svg">
<path d="M6.87508 1.25C6.07584 1.25 5.41675 1.90909 5.41675 2.70833V9.16667H4.79175C4.70893 9.1655 4.6267 9.1808 4.54985 9.21168C4.47299 9.24256 4.40304 9.28841 4.34406 9.34657C4.28508 9.40472 4.23824 9.47402 4.20628 9.55043C4.17431 9.62684 4.15785 9.70884 4.15785 9.79167C4.15785 9.8745 4.17431 9.9565 4.20628 10.0329C4.23824 10.1093 4.28508 10.1786 4.34406 10.2368C4.40304 10.2949 4.47299 10.3408 4.54985 10.3717C4.6267 10.4025 4.70893 10.4178 4.79175 10.4167H15.2084C15.2912 10.4178 15.3735 10.4025 15.4503 10.3717C15.5272 10.3408 15.5971 10.2949 15.6561 10.2368C15.7151 10.1786 15.7619 10.1093 15.7939 10.0329C15.8259 9.9565 15.8423 9.8745 15.8423 9.79167C15.8423 9.70884 15.8259 9.62684 15.7939 9.55043C15.7619 9.47402 15.7151 9.40472 15.6561 9.34657C15.5971 9.28841 15.5272 9.24256 15.4503 9.21168C15.3735 9.1808 15.2912 9.1655 15.2084 9.16667H14.5834V2.70833C14.5834 1.90909 13.9243 1.25 13.1251 1.25H6.87508ZM3.54175 2.5C2.51362 2.5 1.66675 3.34687 1.66675 4.375V12.7083C1.66675 13.7365 2.51362 14.5833 3.54175 14.5833H7.08341V16.6667H5.62508C5.54226 16.6655 5.46003 16.6808 5.38318 16.7117C5.30632 16.7426 5.23637 16.7884 5.17739 16.8466C5.11841 16.9047 5.07158 16.974 5.03961 17.0504C5.00764 17.1268 4.99118 17.2088 4.99118 17.2917C4.99118 17.3745 5.00764 17.4565 5.03961 17.5329C5.07158 17.6093 5.11841 17.6786 5.17739 17.7368C5.23637 17.7949 5.30632 17.8408 5.38318 17.8717C5.46003 17.9025 5.54226 17.9178 5.62508 17.9167H14.3751C14.4579 17.9178 14.5401 17.9025 14.617 17.8717C14.6938 17.8408 14.7638 17.7949 14.8228 17.7368C14.8818 17.6786 14.9286 17.6093 14.9606 17.5329C14.9925 17.4565 15.009 17.3745 15.009 17.2917C15.009 17.2088 14.9925 17.1268 14.9606 17.0504C14.9286 16.974 14.8818 16.9047 14.8228 16.8466C14.7638 16.7884 14.6938 16.7426 14.617 16.7117C14.5401 16.6808 14.4579 16.6655 14.3751 16.6667H12.9167V14.5833H16.4584C17.4865 14.5833 18.3334 13.7365 18.3334 12.7083V4.375C18.3334 3.34687 17.4865 2.5 16.4584 2.5H15.4167V3.75H16.4584C16.8111 3.75 17.0834 4.02229 17.0834 4.375V12.7083C17.0834 13.061 16.8111 13.3333 16.4584 13.3333H3.54175C3.18904 13.3333 2.91675 13.061 2.91675 12.7083V4.375C2.91675 4.02229 3.18904 3.75 3.54175 3.75H4.58341V2.5H3.54175ZM7.91675 2.5H12.0834C12.0834 3.19167 12.6417 3.75 13.3334 3.75V9.16667H12.483C12.4902 9.09774 12.5001 9.02926 12.5001 8.95833C12.5001 7.65784 11.3358 6.66667 10.0001 6.66667C8.66436 6.66667 7.50008 7.65784 7.50008 8.95833C7.50008 9.02935 7.50991 9.09771 7.51717 9.16667H6.66675V3.75C7.35841 3.75 7.91675 3.19167 7.91675 2.5ZM10.0001 3.33333C9.77907 3.33333 9.56711 3.42113 9.41083 3.57741C9.25455 3.73369 9.16675 3.94565 9.16675 4.16667C9.16675 4.38768 9.25455 4.59964 9.41083 4.75592C9.56711 4.9122 9.77907 5 10.0001 5C10.2211 5 10.4331 4.9122 10.5893 4.75592C10.7456 4.59964 10.8334 4.38768 10.8334 4.16667C10.8334 3.94565 10.7456 3.73369 10.5893 3.57741C10.4331 3.42113 10.2211 3.33333 10.0001 3.33333ZM10.0001 7.91667C10.7352 7.91667 11.2501 8.41799 11.2501 8.95833C11.2501 9.02949 11.2352 9.09819 11.2167 9.16667H8.78345C8.76502 9.09808 8.75008 9.02925 8.75008 8.95833C8.75008 8.41799 9.26497 7.91667 10.0001 7.91667ZM8.33341 14.5833H11.6667V16.6667H8.33341V14.5833Z" fill="#667085"/>
</svg>
