<svg width="50" height="50" viewBox="0 0 50 50" fill="none" xmlns="http://www.w3.org/2000/svg">
<path d="M7.29175 6.25H28.1251V43.75H7.29175V6.25Z" fill="#A5D6A7"/>
<path d="M27.0833 13.5416H26.0416C23.1697 13.5416 20.8333 15.8781 20.8333 18.75V41.6666C20.8333 42.4083 20.9937 43.1104 21.2749 43.75H27.0833V13.5416Z" fill="#81C784"/>
<path d="M6.25 5.20837V44.7917H29.1667V5.20837H6.25ZM27.0833 42.7084H8.33333V7.29171H27.0833V42.7084Z" fill="#388E3C"/>
<path d="M17.7084 10.4167C17.1559 10.4167 16.626 10.6362 16.2353 11.0269C15.8446 11.4176 15.6251 11.9475 15.6251 12.5C15.6251 13.0525 15.8446 13.5824 16.2353 13.9731C16.626 14.3638 17.1559 14.5833 17.7084 14.5833C18.261 14.5833 18.7909 14.3638 19.1816 13.9731C19.5723 13.5824 19.7917 13.0525 19.7917 12.5C19.7917 11.9475 19.5723 11.4176 19.1816 11.0269C18.7909 10.6362 18.261 10.4167 17.7084 10.4167ZM17.7084 35.4167C17.1559 35.4167 16.626 35.6362 16.2353 36.0269C15.8446 36.4176 15.6251 36.9475 15.6251 37.5C15.6251 38.0525 15.8446 38.5824 16.2353 38.9731C16.626 39.3638 17.1559 39.5833 17.7084 39.5833C18.261 39.5833 18.7909 39.3638 19.1816 38.9731C19.5723 38.5824 19.7917 38.0525 19.7917 37.5C19.7917 36.9475 19.5723 36.4176 19.1816 36.0269C18.7909 35.6362 18.261 35.4167 17.7084 35.4167ZM17.7084 17.7083C16.7509 17.7083 15.8027 17.8969 14.918 18.2634C14.0333 18.6298 13.2295 19.1669 12.5524 19.844C11.8753 20.5211 11.3382 21.3249 10.9718 22.2096C10.6054 23.0943 10.4167 24.0424 10.4167 25C10.4167 25.9576 10.6054 26.9057 10.9718 27.7904C11.3382 28.6751 11.8753 29.4789 12.5524 30.156C13.2295 30.8331 14.0333 31.3702 14.918 31.7366C15.8027 32.1031 16.7509 32.2917 17.7084 32.2917C18.666 32.2917 19.6141 32.1031 20.4988 31.7366C21.3835 31.3702 22.1873 30.8331 22.8644 30.156C23.5415 29.4789 24.0786 28.6751 24.445 27.7904C24.8115 26.9057 25.0001 25.9576 25.0001 25C25.0001 24.0424 24.8115 23.0943 24.445 22.2096C24.0786 21.3249 23.5415 20.5211 22.8644 19.844C22.1873 19.1669 21.3835 18.6298 20.4988 18.2634C19.6141 17.8969 18.666 17.7083 17.7084 17.7083ZM7.29175 10.6469C7.84591 11.1458 8.57091 11.4583 9.37508 11.4583C11.1011 11.4583 12.5001 10.0594 12.5001 8.33333C12.5001 7.52917 12.1876 6.80417 11.6886 6.25H7.29175V10.6469ZM7.29175 39.3531V43.75H11.6886C12.1876 43.1958 12.5001 42.4708 12.5001 41.6667C12.5001 39.9406 11.1011 38.5417 9.37508 38.5417C8.57091 38.5417 7.84591 38.8542 7.29175 39.3531Z" fill="#388E3C"/>
<path d="M24.9999 25C24.9999 22.1052 23.3093 19.6125 20.8655 18.4343C20.8583 18.5406 20.8333 18.6416 20.8333 18.75V31.5802C23.2947 30.4093 24.9999 27.9073 24.9999 25ZM27.0833 13.5416H29.1666V15.625H27.0833V13.5416ZM27.0833 42.7083H20.9385C21.0968 43.4823 21.4405 44.1833 21.901 44.7916H27.0833V42.7083Z" fill="#2E7D32"/>
<path d="M28.1251 10.6469V6.25H23.7282C23.2292 6.80417 22.9167 7.52917 22.9167 8.33333C22.9167 10.0594 24.3157 11.4583 26.0417 11.4583C26.8459 11.4583 27.5709 11.1458 28.1251 10.6469Z" fill="#388E3C"/>
<path d="M22.9167 18.75V41.6667C22.9167 43.3927 24.3157 44.7917 26.0417 44.7917H40.6251C42.3511 44.7917 43.7501 43.3927 43.7501 41.6667V18.75C43.7501 17.024 42.3511 15.625 40.6251 15.625H26.0417C24.3157 15.625 22.9167 17.024 22.9167 18.75Z" fill="#FFC107"/>
<path d="M35.4167 15.625H39.5834V44.7917H35.4167V15.625Z" fill="#37474F"/>
</svg>
