<svg width="50" height="50" viewBox="0 0 50 50" fill="none" xmlns="http://www.w3.org/2000/svg">
<path d="M14.7156 28.5511L27.2239 40.5052L48.7416 17.9907L36.2322 6.0365L14.7156 28.5511Z" fill="#1B5E20"/>
<path d="M16.7588 30.5763L32.6606 3.49823L47.936 12.4688L32.0341 39.5469L16.7588 30.5763Z" fill="#A5D6A7"/>
<path d="M32.0323 39.5479L48.3437 11.776L33.0698 2.80518L16.7583 30.577L32.0323 39.5479ZM33.6427 5.00934L46.1395 12.3489L31.4593 37.3437L18.9625 30.0041L33.6427 5.00934Z" fill="#388E3C"/>
<path d="M36.055 12.0275C35.8387 12.3958 35.7776 12.8349 35.8851 13.2483C35.9926 13.6616 36.2599 14.0154 36.6282 14.2316C36.9965 14.4479 37.4356 14.5091 37.849 14.4016C38.2623 14.2941 38.6161 14.0268 38.8323 13.6585C39.0486 13.2902 39.1097 12.8511 39.0023 12.4377C38.8948 12.0243 38.6275 11.6706 38.2592 11.4543C37.8909 11.238 37.4518 11.1769 37.0384 11.2844C36.625 11.3919 36.2713 11.6592 36.055 12.0275Z" fill="#388E3C"/>
<path d="M27.6887 18.3205C26.9317 19.6095 26.7178 21.1465 27.094 22.5932C27.4702 24.04 28.4058 25.2781 29.6948 26.0351C30.9838 26.7921 32.5208 27.006 33.9676 26.6298C35.4143 26.2536 36.6524 25.318 37.4094 24.029C38.1664 22.74 38.3803 21.203 38.0041 19.7562C37.6279 18.3095 36.6924 17.0714 35.4033 16.3144C34.1143 15.5574 32.5773 15.3435 31.1306 15.7197C29.6838 16.0959 28.4457 17.0314 27.6887 18.3205Z" fill="#388E3C"/>
<path d="M31.6345 6.8375C31.8085 7.38646 32.1699 7.87917 32.7053 8.19375C33.8553 8.86979 35.3355 8.48438 36.0116 7.33438C36.3262 6.79896 36.4022 6.19271 36.2866 5.62812L33.3553 3.90625L31.6345 6.8375ZM33.4678 35.5146C33.2939 34.9656 32.9324 34.4729 32.397 34.1583C31.247 33.4823 29.7668 33.8677 29.0907 35.0177C28.7762 35.5531 28.7001 36.1594 28.8157 36.724L31.747 38.4458L33.4678 35.5146ZM47.2418 12.0625L44.3105 10.3406C43.7616 10.5146 43.2689 10.876 42.9543 11.4115C42.2782 12.5615 42.6637 14.0417 43.8137 14.7177C44.3491 15.0323 44.9553 15.1083 45.5199 14.9927L47.2418 12.0625Z" fill="#388E3C"/>
<path d="M33.4553 22.7073C32.3657 21.6614 30.6668 21.5937 29.497 22.5489L23.9282 27.0406H21.6261L20.3699 24.4271L24.923 16.6646L18.5616 18.5677C17.7959 18.7968 17.1376 19.2916 16.7032 19.9625L9.97406 30.3583L7.06885 31.2677L10.323 41.9073L20.5459 39.6718C22.6897 39.2031 24.6053 38.0062 25.9668 36.2843L33.7313 26.7177C34.6866 25.5093 34.5668 23.7729 33.4553 22.7073Z" fill="#FFB74D"/>
<path d="M1.04272 31.401L9.0021 29.1666L13.5417 43.5989L5.58127 45.8333L1.04272 31.401Z" fill="#7986CB"/>
<path d="M29.4937 24.0343C29.4937 24.0343 29.8093 25.2187 30.3624 25.7718C30.9155 26.3249 32.2572 26.7197 32.2572 26.7197C32.2572 26.7197 33.9853 24.9677 32.6447 23.6072C31.253 22.1937 29.4937 24.0343 29.4937 24.0343Z" fill="#FFE0B2"/>
</svg>
