<svg width="148" height="148" viewBox="0 0 148 148" fill="none" xmlns="http://www.w3.org/2000/svg">
<rect width="148" height="148" rx="74" fill="#F6F8FA"/>
<path d="M111.6 65.2315V78.6982C111.6 74.4374 108.15 70.9944 103.897 70.9944H38.9622C35.393 70.9944 32.478 68.2135 32.2476 64.7112C32.5152 60.6956 35.8614 57.5278 39.9363 57.5278H103.896C108.15 57.5278 111.6 60.9706 111.6 65.2315Z" fill="#CDD0D5" stroke="#868C98" stroke-linecap="round" stroke-linejoin="round"/>
<path d="M67.5615 21.2672L38.3251 58.0968C36.8631 59.9384 37.1709 62.6165 39.0126 64.0784L61.3626 81.8206C63.2043 83.2825 65.8823 82.9747 67.3443 81.1331L96.5807 44.3035C98.0427 42.4618 97.7349 39.7838 95.8932 38.3218L73.5432 20.5797C71.7015 19.1177 69.0234 19.4255 67.5615 21.2672Z" fill="#E2E4E9" stroke="#868C98" stroke-linecap="round" stroke-linejoin="round"/>
<path d="M75.7582 22.3375L41.2275 65.8363L47.1995 70.5771L81.7302 27.0783L75.7582 22.3375Z" fill="white" stroke="#868C98" stroke-linecap="round" stroke-linejoin="round"/>
<path d="M90.0835 32.6743L50.0992 57.4219C48.0998 58.6594 47.4822 61.2834 48.7197 63.2828L63.7378 87.5473C64.9752 89.5467 67.5992 90.1644 69.5986 88.9269L109.583 64.1793C111.582 62.9418 112.2 60.3178 110.962 58.3184L95.9444 34.0539C94.7069 32.0545 92.0829 31.4369 90.0835 32.6743Z" fill="white" stroke="#868C98" stroke-linecap="round" stroke-linejoin="round"/>
<path d="M94.6145 46.2637L87.1943 50.8563C86.3637 51.3704 86.1072 52.4604 86.6212 53.291L89.4321 57.8324C89.9461 58.663 91.0361 58.9195 91.8667 58.4055L99.2869 53.8129C100.117 53.2988 100.374 52.2088 99.86 51.3782L97.0492 46.8368C96.5351 46.0062 95.4451 45.7496 94.6145 46.2637Z" fill="#E2E4E9" stroke="#868C98" stroke-linecap="round" stroke-linejoin="round"/>
<path d="M111.6 78.6982V115.001C111.6 119.262 108.15 122.705 103.897 122.705H39.9366C35.6832 122.705 32.2329 119.262 32.2329 115.001V65.2314C32.2329 65.0531 32.2403 64.8821 32.2478 64.7111C32.4782 68.2134 35.3932 70.9943 38.9625 70.9943H103.897C108.15 70.9943 111.6 74.4374 111.6 78.6982Z" fill="white" stroke="#868C98" stroke-linecap="round" stroke-linejoin="round"/>
<path d="M112.575 91.5698H97.4739C95.7107 91.5698 94.2812 92.9992 94.2812 94.7625V101.296C94.2812 103.06 95.7107 104.489 97.4739 104.489H112.575C114.338 104.489 115.768 103.06 115.768 101.296V94.7625C115.768 92.9992 114.338 91.5698 112.575 91.5698Z" fill="#E2E4E9" stroke="#868C98" stroke-linecap="round" stroke-linejoin="round"/>
<path d="M100.798 100.785C102.319 100.785 103.553 99.5515 103.553 98.0298C103.553 96.5081 102.319 95.2745 100.798 95.2745C99.2761 95.2745 98.0425 96.5081 98.0425 98.0298C98.0425 99.5515 99.2761 100.785 100.798 100.785Z" fill="white" stroke="#868C98" stroke-linecap="round" stroke-linejoin="round"/>
<path d="M90.7639 67.8197V71.0049H80.3677V67.8197C80.3677 64.9488 82.695 62.6251 85.5658 62.6251C87.003 62.6251 88.3017 63.2051 89.2428 64.1463C90.1839 65.0839 90.7639 66.3823 90.7639 67.8197Z" fill="#CDD0D5" stroke="#868C98" stroke-linecap="round" stroke-linejoin="round"/>
<path d="M85.5659 62.6251C82.6951 62.6251 80.3678 64.9488 80.3678 67.8197V97.7668C80.3678 101.269 77.5298 104.107 74.0243 104.107C70.5223 104.107 67.6807 101.269 67.6807 97.7668C67.6807 94.8121 69.7016 92.328 72.4374 91.6241L47.1109 96.844L47.0889 96.8476L46.881 96.8841C45.2322 97.2343 43.9956 98.7007 43.9956 100.455V67.8197C43.9956 64.9488 46.3229 62.6251 49.1937 62.6251H85.5659Z" fill="white" stroke="#868C98" stroke-linecap="round" stroke-linejoin="round"/>
<path d="M74.0245 104.106H47.6473C45.63 104.106 43.9958 102.472 43.9958 100.455C43.9958 98.7005 45.2325 97.2341 46.8813 96.8839L47.0892 96.8474L47.1111 96.8438L72.4377 91.6239C69.7018 92.3279 67.681 94.812 67.681 97.7667C67.681 101.269 70.5225 104.106 74.0245 104.106Z" fill="white" stroke="#CDD0D5" stroke-linecap="round" stroke-linejoin="round"/>
<path d="M74.0245 104.106H47.6473C45.63 104.106 43.9958 102.472 43.9958 100.455C43.9958 98.7005 45.2325 97.2341 46.8813 96.8839L47.0892 96.8474L47.1111 96.8438L72.4377 91.6239C69.7018 92.3279 67.681 94.812 67.681 97.7667C67.681 101.269 70.5225 104.106 74.0245 104.106Z" fill="#CDD0D5" stroke="#868C98" stroke-linecap="round" stroke-linejoin="round"/>
<path d="M52.6611 74.8411L57.5408 79.7152L52.6611 74.8411Z" fill="white"/>
<path d="M52.6611 74.8411L57.5408 79.7152" stroke="#868C98" stroke-linecap="round" stroke-linejoin="round"/>
<path d="M57.5383 74.8382L52.6643 79.7179L57.5383 74.8382Z" fill="white"/>
<path d="M57.5383 74.8382L52.6643 79.7179" stroke="#868C98" stroke-linecap="round" stroke-linejoin="round"/>
<path d="M67.5591 74.8325L72.4388 79.7064L67.5591 74.8325Z" fill="white"/>
<path d="M67.5591 74.8325L72.4388 79.7064" stroke="#868C98" stroke-linecap="round" stroke-linejoin="round"/>
<path d="M72.4358 74.8295L67.5618 79.7092L72.4358 74.8295Z" fill="white"/>
<path d="M72.4358 74.8295L67.5618 79.7092" stroke="#868C98" stroke-linecap="round" stroke-linejoin="round"/>
<path d="M55.7092 84.7298L68.354 84.7225L55.7092 84.7298Z" fill="white"/>
<path d="M55.7092 84.7298L68.354 84.7225" stroke="#868C98" stroke-linecap="round" stroke-linejoin="round"/>
<path d="M25.5718 43.1338C25.5718 43.1338 19.5645 41.3442 17.7606 47.3251C19.5644 41.3443 13.5693 39.5138 13.5693 39.5138C13.5693 39.5138 19.5768 41.3034 21.3806 35.3226C19.5768 41.3034 25.5718 43.1338 25.5718 43.1338Z" fill="white" stroke="#868C98" stroke-linecap="round" stroke-linejoin="round"/>
<path d="M135.607 79.4648C135.607 79.4648 130.476 85.4836 136.457 90.6169C130.476 85.4835 125.305 91.4672 125.305 91.4672C125.305 91.4672 130.435 85.4484 124.455 80.315C130.435 85.4484 135.607 79.4648 135.607 79.4648Z" fill="white" stroke="#868C98" stroke-linecap="round" stroke-linejoin="round"/>
</svg>
