<svg width="50" height="50" viewBox="0 0 50 50" fill="none" xmlns="http://www.w3.org/2000/svg">
<path d="M12.5 41.6666V8.33329C12.5 6.04163 14.375 4.16663 16.6667 4.16663H33.3333C35.625 4.16663 37.5 6.04163 37.5 8.33329V41.6666C37.5 43.9583 35.625 45.8333 33.3333 45.8333H16.6667C14.375 45.8333 12.5 43.9583 12.5 41.6666Z" fill="#757575"/>
<path d="M33.3333 7.29163H16.6667C16.0417 7.29163 15.625 7.70829 15.625 8.33329V38.5416C15.625 39.1666 16.0417 39.5833 16.6667 39.5833H33.3333C33.9583 39.5833 34.375 39.1666 34.375 38.5416V8.33329C34.375 7.70829 33.9583 7.29163 33.3333 7.29163Z" fill="#E3F2FD"/>
<path d="M26.5625 42.7084C26.5625 43.5417 25.8333 44.2709 25 44.2709C24.1667 44.2709 23.4375 43.5417 23.4375 42.7084C23.4375 41.875 24.1667 41.1459 25 41.1459C25.8333 41.1459 26.5625 41.875 26.5625 42.7084Z" fill="#424242"/>
<path d="M27.1584 26.6417C27.1584 26.0646 26.998 25.6063 26.6782 25.2636C26.3584 24.923 25.8157 24.6073 25.048 24.3198C24.2813 24.0313 23.6199 23.7438 23.0636 23.4605C22.5074 23.175 22.0313 22.848 21.6334 22.4782C21.2365 22.1094 20.9272 21.674 20.7042 21.175C20.4834 20.6761 20.372 20.0802 20.372 19.3917C20.372 18.2021 20.7522 17.2282 21.5115 16.4688C22.2709 15.7094 23.2813 15.2657 24.5407 15.1386V12.8802H26.2292V15.1709C27.4751 15.3469 28.449 15.8657 29.1522 16.7282C29.8574 17.5886 30.2084 18.7052 30.2084 20.0782H27.1584C27.1584 19.2334 26.9845 18.6021 26.6355 18.1844C26.2876 17.7657 25.8209 17.5563 25.2376 17.5563C24.6605 17.5563 24.2136 17.7198 23.897 18.0469C23.5803 18.375 23.422 18.8261 23.422 19.4032C23.422 19.9386 23.5772 20.3667 23.8865 20.6907C24.1959 21.0146 24.772 21.3448 25.6126 21.6823C26.4532 22.0198 27.1449 22.3386 27.6855 22.6375C28.2272 22.9365 28.6845 23.274 29.0574 23.6511C29.4303 24.0271 29.7147 24.4563 29.9126 24.9386C30.1105 25.4198 30.2084 25.9803 30.2084 26.6209C30.2084 27.8167 29.8355 28.7875 29.0897 29.5334C28.3438 30.2792 27.3167 30.7188 26.0084 30.8521V32.9521H24.3303V30.8625C22.8876 30.7073 21.7709 30.1959 20.9792 29.3271C20.1876 28.4594 19.7917 27.3042 19.7917 25.8615H22.8417C22.8417 26.699 23.0407 27.3407 23.4386 27.7875C23.8355 28.2344 24.4074 28.4573 25.1532 28.4573C25.773 28.4573 26.2615 28.2938 26.6199 27.9657C26.9792 27.6396 27.1584 27.198 27.1584 26.6417Z" fill="#388E3C"/>
</svg>
