<svg width="148" height="148" viewBox="0 0 148 148" fill="none" xmlns="http://www.w3.org/2000/svg">
<rect width="148" height="148" rx="74" fill="#F6F8FA"/>
<rect x="35.2485" y="40.1309" width="65.9741" height="83.2222" rx="3.05155" fill="#E2E4E9" stroke="#868C98" stroke-miterlimit="10"/>
<path d="M42.5 36.3838V105.578C42.5 111.643 47.4131 116.555 53.4779 116.555H100.937C105.102 116.555 108.474 113.184 108.474 109.018V36.3838C108.474 34.6978 107.109 33.3323 105.423 33.3323H45.5515C43.8656 33.3323 42.5 34.6978 42.5 36.3838Z" fill="white" stroke="#868C98" stroke-miterlimit="10"/>
<rect x="62.0713" y="29.0149" width="26.8307" height="8.63836" rx="1.52577" fill="#CDD0D5" stroke="#868C98" stroke-miterlimit="10"/>
<path d="M70 25.5C70 22.4624 72.4624 20 75.5 20C78.5376 20 81 22.4624 81 25.5V29H70V25.5Z" fill="#CDD0D5" stroke="#868C98" stroke-miterlimit="10"/>
<circle cx="75.4863" cy="24.9912" r="2.4912" fill="white"/>
<path d="M108.86 40.1309H112.663C114.349 40.1309 115.715 41.4971 115.715 43.1824V57.7954C115.715 59.4807 114.349 60.8469 112.663 60.8469H108.86V40.1309Z" fill="#E2E4E9" stroke="#868C98" stroke-miterlimit="10"/>
<path d="M108.86 87.9604H112.663C114.349 87.9604 115.715 89.3267 115.715 91.012V105.625C115.715 107.31 114.349 108.677 112.663 108.677H108.86V87.9604Z" fill="#E2E4E9" stroke="#868C98" stroke-miterlimit="10"/>
<path d="M60.0377 59.3694H55.1445" stroke="#868C98" stroke-linecap="round" stroke-linejoin="round"/>
<path fill-rule="evenodd" clip-rule="evenodd" d="M54.7705 59.1299C53.3221 58.1065 52.4535 56.3196 52.7594 54.3526C53.0905 52.2265 54.8626 50.5293 57.0001 50.279C59.967 49.9307 62.4846 52.2403 62.4846 55.1371C62.4846 56.7885 61.6642 58.2459 60.4107 59.1316C60.1856 59.2906 60.038 59.5369 60.038 59.8125V62.0691C60.038 63.1954 59.1254 64.108 57.9992 64.108H57.1836C56.0574 64.108 55.1448 63.1954 55.1448 62.0691V59.8158C55.1448 59.5377 54.9964 59.2898 54.7705 59.1299Z" stroke="#868C98" stroke-linecap="round" stroke-linejoin="round"/>
<path d="M64.1157 51.0594L65.0862 50.0889" stroke="#868C98" stroke-linecap="round" stroke-linejoin="round"/>
<path d="M51.0672 59.2146L50.0967 60.1851" stroke="#868C98" stroke-linecap="round" stroke-linejoin="round"/>
<path d="M51.8826 50.2439L50.9121 49.2734" stroke="#868C98" stroke-linecap="round" stroke-linejoin="round"/>
<path d="M64.1157 59.2146L65.0862 60.1851" stroke="#868C98" stroke-linecap="round" stroke-linejoin="round"/>
<path d="M64.9312 55.137H66.3094" stroke="#868C98" stroke-linecap="round" stroke-linejoin="round"/>
<path d="M48.873 55.137H50.2513" stroke="#868C98" stroke-linecap="round" stroke-linejoin="round"/>
<path d="M55.1445 61.6614H59.9317" stroke="#868C98" stroke-linecap="round" stroke-linejoin="round"/>
<rect x="71.2358" y="51.3081" width="29.1287" height="3.70136" rx="0.762887" fill="#E2E4E9"/>
<rect x="71.2358" y="58.5266" width="16.8086" height="3.70136" rx="0.762887" fill="#E2E4E9"/>
<path d="M53.4775 116.556L105.453 116.533C109.039 116.533 111.945 113.634 111.945 110.048C111.945 106.867 109.641 104.212 106.613 103.671L106.407 103.633L55.6899 94.8135C60.702 95.8358 64.4631 100.261 64.4631 105.578C64.4631 111.643 59.55 116.556 53.4775 116.556Z" fill="#CDD0D5" stroke="#868C98" stroke-miterlimit="10"/>
<circle cx="108.861" cy="34.7224" r="12.2593" fill="#E2E4E9" stroke="#868C98" stroke-miterlimit="10"/>
<path fill-rule="evenodd" clip-rule="evenodd" d="M100.987 44.1196C101.331 40.3847 104.272 37.402 107.988 36.9942C106.009 36.5904 104.519 34.8393 104.519 32.7401C104.519 30.3423 106.463 28.3984 108.861 28.3984C111.258 28.3984 113.202 30.3423 113.202 32.7401C113.202 34.8392 111.713 36.5904 109.733 36.9942C113.449 37.4019 116.39 40.3846 116.734 44.1194C114.604 45.9059 111.858 46.9817 108.861 46.9817C105.863 46.9817 103.117 45.906 100.987 44.1196Z" fill="#868C98"/>
<path d="M107.988 36.9942L108.043 37.4912C108.288 37.4644 108.477 37.2632 108.488 37.0172C108.499 36.7711 108.33 36.5535 108.088 36.5043L107.988 36.9942ZM100.987 44.1196L100.489 44.0738C100.474 44.2371 100.54 44.3973 100.666 44.5027L100.987 44.1196ZM109.733 36.9942L109.633 36.5043C109.392 36.5535 109.222 36.7711 109.233 37.0172C109.245 37.2632 109.434 37.4644 109.678 37.4912L109.733 36.9942ZM116.734 44.1194L117.055 44.5025C117.181 44.3972 117.247 44.2369 117.232 44.0736L116.734 44.1194ZM107.934 36.4972C103.982 36.9309 100.855 40.1018 100.489 44.0738L101.485 44.1654C101.807 40.6676 104.563 37.8732 108.043 37.4912L107.934 36.4972ZM104.019 32.7401C104.019 35.0816 105.68 37.0338 107.888 37.4841L108.088 36.5043C106.337 36.1471 105.019 34.5969 105.019 32.7401H104.019ZM108.861 27.8984C106.187 27.8984 104.019 30.0661 104.019 32.7401H105.019C105.019 30.6184 106.739 28.8984 108.861 28.8984V27.8984ZM113.702 32.7401C113.702 30.0661 111.535 27.8984 108.861 27.8984V28.8984C110.982 28.8984 112.702 30.6184 112.702 32.7401H113.702ZM109.833 37.4841C112.041 37.0338 113.702 35.0815 113.702 32.7401H112.702C112.702 34.5969 111.385 36.147 109.633 36.5043L109.833 37.4841ZM117.232 44.0736C116.866 40.1017 113.739 36.9308 109.787 36.4972L109.678 37.4912C113.159 37.8731 115.914 40.6675 116.236 44.1653L117.232 44.0736ZM116.413 43.7364C114.37 45.4501 111.736 46.4817 108.861 46.4817V47.4817C111.98 47.4817 114.839 46.3617 117.055 44.5025L116.413 43.7364ZM108.861 46.4817C105.985 46.4817 103.352 45.4502 101.309 43.7365L100.666 44.5027C102.883 46.3618 105.741 47.4817 108.861 47.4817V46.4817Z" fill="#868C98"/>
<circle cx="39.1387" cy="93.2166" r="12.2593" fill="white" stroke="#868C98" stroke-miterlimit="10"/>
<path fill-rule="evenodd" clip-rule="evenodd" d="M31.2651 102.614C31.6089 98.8791 34.5497 95.8966 38.2652 95.4884C36.2859 95.0842 34.7967 93.3333 34.7967 91.2345C34.7967 88.8367 36.7406 86.8928 39.1384 86.8928C41.5363 86.8928 43.4802 88.8367 43.4802 91.2345C43.4802 93.3332 41.9911 95.0842 40.0118 95.4884C43.7273 95.8966 46.6681 98.879 47.012 102.614C44.8821 104.4 42.1359 105.476 39.1385 105.476C36.1411 105.476 33.395 104.4 31.2651 102.614Z" fill="#868C98"/>
<path d="M38.2652 95.4884L38.3198 95.9854C38.5646 95.9585 38.7533 95.7574 38.7647 95.5114C38.776 95.2654 38.6065 95.0478 38.3652 94.9985L38.2652 95.4884ZM31.2651 102.614L30.7672 102.568C30.7522 102.731 30.8182 102.891 30.9438 102.997L31.2651 102.614ZM40.0118 95.4884L39.9117 94.9985C39.6705 95.0478 39.501 95.2654 39.5123 95.5114C39.5236 95.7574 39.7124 95.9585 39.9572 95.9854L40.0118 95.4884ZM47.012 102.614L47.3333 102.997C47.4589 102.891 47.5249 102.731 47.5099 102.568L47.012 102.614ZM38.2106 94.9914C34.2593 95.4255 31.1329 98.5963 30.7672 102.568L31.763 102.66C32.085 99.162 34.8401 96.3677 38.3198 95.9854L38.2106 94.9914ZM34.2967 91.2345C34.2967 93.5756 35.9577 95.5275 38.1652 95.9783L38.3652 94.9985C36.6141 94.6409 35.2967 93.091 35.2967 91.2345H34.2967ZM39.1384 86.3928C36.4644 86.3928 34.2967 88.5605 34.2967 91.2345H35.2967C35.2967 89.1128 37.0167 87.3928 39.1384 87.3928V86.3928ZM43.9802 91.2345C43.9802 88.5605 41.8124 86.3928 39.1384 86.3928V87.3928C41.2602 87.3928 42.9802 89.1128 42.9802 91.2345H43.9802ZM40.1118 95.9783C42.3192 95.5275 43.9802 93.5755 43.9802 91.2345H42.9802C42.9802 93.091 41.6629 94.6409 39.9117 94.9985L40.1118 95.9783ZM47.5099 102.568C47.1442 98.5961 44.0177 95.4254 40.0664 94.9914L39.9572 95.9854C43.4369 96.3677 46.192 99.1619 46.5141 102.659L47.5099 102.568ZM46.6907 102.23C44.6474 103.944 42.0141 104.976 39.1385 104.976V105.976C42.2577 105.976 45.1167 104.856 47.3333 102.997L46.6907 102.23ZM39.1385 104.976C36.2629 104.976 33.6297 103.944 31.5864 102.231L30.9438 102.997C33.1604 104.856 36.0193 105.976 39.1385 105.976V104.976Z" fill="#868C98"/>
<path d="M22.8672 46.7408C22.8672 46.7408 16.8672 46.7612 16.8672 52.7407C16.8672 46.7612 10.8672 46.7408 10.8672 46.7408C10.8672 46.7408 16.8672 46.7203 16.8672 40.7407C16.8672 46.7203 22.8672 46.7408 22.8672 46.7408Z" fill="white" stroke="#868C98" stroke-linecap="round" stroke-linejoin="round"/>
<path d="M141.138 95.3675C141.138 95.3675 135.138 95.3879 135.138 101.367C135.138 95.3879 129.138 95.3675 129.138 95.3675C129.138 95.3675 135.138 95.347 135.138 89.3674C135.138 95.347 141.138 95.3675 141.138 95.3675Z" fill="white" stroke="#868C98" stroke-linecap="round" stroke-linejoin="round"/>
<circle cx="58.7455" cy="80.0819" r="3.41203" fill="#E2E4E9"/>
<circle cx="75.4867" cy="80.0819" r="3.41203" fill="#E2E4E9"/>
<circle cx="92.2289" cy="80.0819" r="3.41203" fill="#E2E4E9"/>
</svg>
